<?xml version="1.0" standalone="no"?>
<!DOCTYPE svg PUBLIC "-//W3C//DTD SVG 20010904//EN"
 "http://www.w3.org/TR/2001/REC-SVG-20010904/DTD/svg10.dtd">
<svg version="1.0"
    xmlns="http://www.w3.org/2000/svg" width="1920.000000pt" height="1920.000000pt" viewBox="0 0 1920.000000 1920.000000" preserveAspectRatio="xMidYMid meet">
    <rect width="100%" height="100%" fill="#ffea00" />
    <g transform="translate(0.000000,1920.000000) scale(0.100000,-0.100000)" fill="#000000" stroke="none">
        <path d="M9755 17503 c-255 -33 -502 -145 -662 -301 -205 -200 -301 -451 -338 -884 -5 -62 -4 -68 17 -80 29 -15 207 -15 373 2 66 6 121 13 122 14 2 1 7 64 13 139 7 107 16 156 39 227 69 204 142 301 274 364 311 149 715 30 841 -246 52 -113 70 -197 70 -323 0 -131 -19 -193 -90 -298 -62 -90 -150 -169 -334 -302 -443 -318 -571 -466 -635 -735 -31 -129 -31 -494 -1 -536 25 -34 232 -28 361 10 88 27 87 25 86 172 -1 148 14 237 58 330 73 155 165 246 446 438 408 280 562 488 606 821 26 198 -19 439 -118 633 -167 328 -423 505 -796 552 -78 10 -268 11 -332 3z"/>
        <path d="M5175 15549 c-380 -50 -728 -323 -848 -666 -26 -76 -31 -106 -35 -214 -6 -188 28 -334 129 -548 47 -100 50 -103 76 -96 40 10 116 54 236 140 l106 75 -54 112 c-63 133 -78 197 -79 333 -1 89 2 107 26 158 91 193 352 330 566 297 91 -14 161 -51 240 -124 125 -116 176 -223 174 -366 -1 -108 -27 -194 -132 -431 -121 -272 -160 -407 -160 -551 0 -144 64 -313 186 -494 67 -100 78 -103 173 -46 78 45 191 152 191 179 0 11 -20 50 -44 88 -25 37 -57 102 -73 144 -24 65 -28 91 -28 181 0 133 18 193 130 435 98 212 129 298 151 426 27 156 2 313 -72 462 -166 330 -536 548 -859 506z"/>
        <path d="M13742 14780 c-242 -44 -477 -222 -673 -512 l-41 -60 29 -30 c23 -25 330 -188 353 -188 4 0 32 37 61 82 63 95 118 154 209 222 84 63 139 86 222 93 237 20 498 -157 568 -385 25 -81 25 -156 0 -256 -64 -252 -204 -372 -485 -415 -38 -6 -146 -18 -240 -26 -378 -36 -551 -98 -701 -256 -106 -112 -254 -363 -239 -408 13 -43 206 -138 300 -148 l52 -5 42 78 c82 153 163 233 291 293 88 40 182 58 411 76 405 32 580 94 750 265 165 167 259 407 259 665 0 254 -70 426 -245 599 -135 134 -338 251 -515 296 -97 25 -319 35 -408 20z"/>
        <path d="M9630 14194 c-75 -20 -129 -54 -185 -116 -77 -86 -106 -161 -106 -274 0 -92 23 -154 82 -219 141 -154 386 -177 566 -54 126 87 188 286 133 431 -42 113 -158 204 -297 233 -84 18 -123 18 -193 -1z"/>
        <path d="M6096 13000 c-159 -57 -245 -181 -234 -338 13 -171 129 -285 288 -283 143 1 267 77 332 201 34 67 33 193 -3 270 -50 107 -132 161 -254 167 -53 3 -85 -2 -129 -17z"/>
        <path d="M8980 12653 c-371 -37 -693 -138 -1085 -342 -786 -408 -1554 -1128 -1924 -1803 -24 -43 -38 -78 -31 -78 6 0 113 103 237 230 409 418 730 675 1113 892 441 250 839 378 1330 428 153 15 280 36 289 46 12 12 93 220 125 319 30 93 65 248 66 288 0 25 -2 27 -42 25 -24 0 -59 -3 -78 -5z"/>
        <path d="M12595 12303 c-192 -70 -285 -263 -205 -428 32 -66 112 -145 182 -179 82 -40 191 -46 271 -16 71 27 159 108 188 175 22 50 27 146 10 203 -26 89 -116 188 -208 232 -66 31 -171 37 -238 13z"/>
        <path d="M10709 11914 c-49 -52 -107 -153 -137 -237 -40 -111 -77 -305 -62 -321 3 -2 41 2 85 9 663 116 1283 -99 1780 -616 172 -180 347 -416 459 -622 27 -49 50 -87 52 -85 8 9 -140 412 -187 508 -165 342 -433 646 -799 907 -348 248 -836 465 -1080 480 -84 5 -85 5 -111 -23z"/>
        <path d="M10880 10805 c-141 -28 -267 -95 -404 -213 -137 -118 -215 -220 -304 -398 -180 -359 -289 -727 -348 -1174 -22 -166 -30 -628 -15 -803 91 -1007 507 -1812 1167 -2255 244 -164 535 -280 806 -323 117 -18 373 -7 473 21 294 80 510 269 711 621 154 270 257 608 300 979 22 197 15 606 -15 830 -96 710 -332 1307 -699 1770 -203 257 -551 550 -823 695 -49 25 -89 53 -92 63 -6 24 -159 103 -276 142 -177 60 -336 74 -481 45z m530 -430 c199 -32 340 -90 530 -217 512 -344 938 -904 1089 -1433 66 -232 111 -631 111 -982 0 -686 -189 -1245 -528 -1565 -152 -142 -286 -188 -577 -195 -210 -6 -342 9 -549 61 -241 61 -436 147 -632 277 -129 86 -381 331 -486 472 -274 370 -394 735 -469 1437 -16 151 -17 646 -1 775 44 355 140 643 288 866 72 109 221 256 334 328 139 90 315 155 489 180 94 14 300 12 401 -4z"/>
        <path d="M11160 9795 c-197 -56 -341 -188 -418 -385 -35 -90 -43 -130 -49 -245 -13 -254 85 -517 256 -685 118 -116 250 -182 423 -210 375 -60 709 153 809 517 18 65 21 96 17 197 -4 103 -10 136 -38 220 -105 310 -339 510 -680 581 -114 24 -254 28 -320 10z m271 -102 c78 -39 136 -97 178 -182 68 -133 24 -277 -103 -343 -39 -20 -71 -23 -157 -16 -38 3 -52 10 -86 46 -23 25 -53 44 -72 48 -62 13 -131 130 -131 222 0 38 9 74 31 125 52 119 81 139 199 135 62 -3 88 -9 141 -35z m508 -427 c10 -33 21 -99 24 -146 3 -47 3 -74 1 -60 -16 79 -56 243 -64 266 -9 24 -9 25 5 14 8 -7 23 -40 34 -74z m-790 -230 c2 -99 -5 -78 -11 34 -3 52 -2 82 2 65 4 -16 8 -61 9 -99z m191 -30 c0 -22 3 -95 7 -161 3 -66 3 -118 0 -115 -4 4 -24 135 -42 277 -6 49 -6 51 14 46 17 -4 21 -13 21 -47z m170 -33 c0 -32 3 -76 7 -98 3 -22 3 -37 0 -34 -4 3 -11 39 -17 80 -6 41 -13 82 -16 92 -3 11 0 17 10 17 13 0 16 -12 16 -57z m334 -63 l6 -45 -15 50 c-16 56 -19 77 -6 55 5 -8 11 -35 15 -60z m-963 -83 c3 -20 5 -37 3 -37 -1 0 -11 18 -22 41 -18 35 -18 40 -4 37 11 -2 19 -17 23 -41z m213 -236 c14 -36 34 -74 43 -85 10 -11 -5 -1 -33 22 -69 56 -78 68 -59 76 8 3 15 17 15 32 0 35 3 31 34 -45z m755 -35 c9 -10 8 -16 -4 -26 -13 -11 -15 -8 -15 14 0 30 3 32 19 12z m-546 -98 l26 -58 -33 14 c-55 23 -94 47 -71 44 14 -2 25 7 35 29 8 17 15 30 16 30 1 -1 13 -28 27 -59z m362 5 c17 -41 18 -38 -14 -48 -21 -7 -23 -5 -18 16 4 13 7 34 7 47 0 32 7 27 25 -15z m-175 -3 c0 -5 18 -23 40 -39 l40 -29 -31 -6 c-18 -3 -43 -6 -56 -6 -21 0 -24 4 -19 23 3 12 6 32 6 45 0 12 5 22 10 22 6 0 10 -4 10 -10z"/>
        <path d="M7635 10624 c-167 -31 -332 -85 -337 -110 -2 -10 -47 -31 -128 -58 -485 -163 -1005 -512 -1353 -906 -463 -525 -787 -1172 -977 -1950 -185 -757 -131 -1504 150 -2079 114 -232 229 -380 390 -500 211 -157 437 -228 755 -238 754 -22 1507 362 2054 1047 523 654 857 1597 889 2505 18 506 -26 911 -144 1325 -75 264 -144 404 -285 580 -163 203 -303 302 -516 366 -77 23 -109 27 -253 30 -116 2 -189 -1 -245 -12z m160 -464 c471 -94 825 -362 1020 -773 128 -269 177 -517 177 -892 0 -362 -52 -704 -177 -1159 -221 -805 -516 -1294 -1005 -1666 -318 -242 -587 -369 -935 -440 -467 -96 -1013 -52 -1330 107 -207 104 -377 334 -495 668 -140 398 -167 919 -74 1464 69 410 207 875 339 1146 192 391 505 752 922 1064 357 267 774 464 1058 501 111 14 385 3 500 -20z"/>
        <path d="M7985 9510 c-278 -31 -523 -171 -685 -390 -142 -193 -197 -357 -187 -565 8 -173 56 -317 151 -448 171 -240 430 -357 761 -344 237 9 415 88 586 260 336 336 427 815 221 1156 -73 120 -206 233 -327 277 -128 47 -369 72 -520 54z m461 -125 c60 -18 122 -67 140 -112 8 -18 17 -79 20 -135 5 -90 4 -109 -14 -149 -42 -96 -138 -179 -208 -179 -50 0 -91 -14 -119 -40 -36 -33 -152 -21 -229 24 -121 71 -166 225 -105 365 39 91 185 204 297 230 59 14 164 12 218 -4z m-839 -249 c-39 -59 -148 -255 -158 -285 -6 -17 -13 -30 -15 -28 -7 7 45 147 77 207 27 51 93 130 107 130 3 0 -3 -11 -11 -24z m-48 -463 c-41 -74 -55 -89 -33 -38 17 41 51 95 60 95 3 0 -9 -26 -27 -57z m813 -103 c-24 -66 -47 -119 -49 -117 -9 9 79 237 92 237 2 0 -18 -54 -43 -120z m-406 92 c7 -5 -6 -41 -37 -107 -27 -55 -48 -96 -49 -91 0 16 64 206 70 206 3 0 10 -4 16 -8z m200 -99 c-65 -151 -131 -292 -135 -288 -2 2 23 83 55 179 53 161 60 175 83 179 14 2 27 5 28 6 1 0 -13 -34 -31 -76z m484 -296 c0 -2 -18 -21 -41 -42 l-41 -40 21 43 c14 28 28 42 41 42 11 0 20 -1 20 -3z m-1228 -42 c-7 -25 -9 -26 -15 -11 -4 10 -2 25 4 33 16 19 20 12 11 -22z m190 -167 l-4 -57 -28 21 -29 21 32 38 c18 20 32 37 32 36 1 -1 -1 -28 -3 -59z m710 20 c-3 -22 0 -35 13 -44 17 -12 10 -18 -67 -54 -92 -43 -122 -52 -72 -21 17 11 53 49 80 85 27 36 49 66 50 66 0 0 -2 -14 -4 -32z m-527 -114 c-3 -24 -8 -44 -10 -44 -2 0 -28 10 -59 21 -57 22 -72 39 -36 39 28 0 100 37 101 53 1 6 3 4 6 -7 3 -10 2 -38 -2 -62z m253 23 c-3 -44 7 -57 45 -58 24 -1 17 -4 -28 -15 -33 -7 -75 -13 -94 -14 l-33 0 53 59 c30 33 55 60 57 60 1 1 2 -14 0 -32z"/>
        <path d="M10816 4479 c-393 -28 -850 -126 -1232 -264 -812 -295 -1642 -841 -2509 -1652 -355 -332 -815 -802 -815 -833 0 -34 36 -43 139 -37 119 7 274 37 402 77 223 69 321 126 684 397 379 283 670 522 1140 941 420 375 630 545 865 701 376 249 769 400 1270 486 152 27 338 85 363 113 23 28 27 51 11 67 -17 17 -122 18 -318 4z m-1286 -460 c-389 -205 -923 -569 -1410 -961 -245 -196 -568 -473 -735 -627 l-60 -56 60 63 c160 169 584 556 795 726 390 314 729 552 998 701 116 64 435 214 457 214 6 1 -42 -27 -105 -60z"/>
        <path d="M9795 3100 c-357 -53 -751 -292 -1066 -647 -93 -105 -210 -255 -204 -261 2 -2 66 47 142 110 315 259 541 411 732 493 119 51 179 66 295 74 90 6 107 11 138 35 70 53 117 156 88 191 -13 16 -44 17 -125 5z"/>
    </g>
</svg>
